<?xml version="1.0" encoding="UTF-8"?>
<svg version="1.1" xmlns="http://www.w3.org/2000/svg" width="447" height="559">
<path d="M0 0 C1.23943359 0.96679688 1.23943359 0.96679688 2.50390625 1.953125 C2.50390625 2.613125 2.50390625 3.273125 2.50390625 3.953125 C3.49390625 3.953125 4.48390625 3.953125 5.50390625 3.953125 C5.50390625 4.613125 5.50390625 5.273125 5.50390625 5.953125 C6.43203125 6.324375 6.43203125 6.324375 7.37890625 6.703125 C9.85459312 8.15941139 10.45515627 9.33125006 11.50390625 11.953125 C12.16390625 11.953125 12.82390625 11.953125 13.50390625 11.953125 C14.92627145 13.90698972 16.19748183 15.82651189 17.44140625 17.890625 C17.80113525 18.48673584 18.16086426 19.08284668 18.53149414 19.69702148 C23.65531216 28.39941633 25.01165 35.92128213 25.50390625 45.953125 C26.055625 46.05882812 26.60734375 46.16453125 27.17578125 46.2734375 C36.89407889 49.11065862 43.67916549 56.38211495 48.50390625 64.953125 C53.99423734 76.57147435 53.89215106 87.92963309 49.78125 99.984375 C48.01281517 104.09449876 45.89282474 107.96183962 42.50390625 110.953125 C41.51390625 110.953125 40.52390625 110.953125 39.50390625 110.953125 C40.11072415 107.89206583 41.09332592 105.87122426 42.87890625 103.328125 C48.15905121 95.06355028 49.88719147 86.00895193 48 76.3828125 C46.62396343 71.24036727 44.60651648 67.02327743 41.58984375 62.64453125 C40.50390625 60.953125 40.50390625 60.953125 39.50390625 57.953125 C38.51390625 57.623125 37.52390625 57.293125 36.50390625 56.953125 C36.50390625 56.293125 36.50390625 55.633125 36.50390625 54.953125 C35.86453125 54.72625 35.22515625 54.499375 34.56640625 54.265625 C33.55578125 53.8325 32.54515625 53.399375 31.50390625 52.953125 C30.76785156 52.72753906 30.03179687 52.50195312 29.2734375 52.26953125 C26.39773685 51.138954 24.67133354 50.18368125 22.50390625 47.953125 C21.26290927 43.94509943 20.66636515 40.07222502 20.12109375 35.92578125 C19.56216062 31.76908383 18.21971574 28.36266444 16.2734375 24.65234375 C15.50390625 22.953125 15.50390625 22.953125 15.50390625 19.953125 C14.84390625 19.953125 14.18390625 19.953125 13.50390625 19.953125 C9.50390625 14.54136029 9.50390625 14.54136029 9.50390625 11.953125 C8.84390625 11.953125 8.18390625 11.953125 7.50390625 11.953125 C7.50390625 11.293125 7.50390625 10.633125 7.50390625 9.953125 C6.98828125 9.72625 6.47265625 9.499375 5.94140625 9.265625 C3.83305683 8.13035993 2.05002339 6.92983983 0.12890625 5.515625 C-2.9699919 3.28153564 -5.97078967 1.47384441 -9.49609375 -0.046875 C-10.14449219 -0.32660156 -10.79289063 -0.60632813 -11.4609375 -0.89453125 C-23.02274508 -5.14374258 -36.4618379 -4.54536476 -47.60546875 0.48046875 C-48.559375 0.96644531 -49.51328125 1.45242187 -50.49609375 1.953125 C-51.83414063 2.60474609 -51.83414063 2.60474609 -53.19921875 3.26953125 C-64.30464078 9.24806366 -70.68360877 19.07574154 -76.49609375 29.953125 C-78.52662308 28.93786033 -80.55594267 27.92230055 -82.57421875 26.8828125 C-88.60265145 23.95533619 -93.30597053 22.63622913 -99.8203125 24.68359375 C-104.66789765 26.64666542 -108.0661648 28.91791447 -111.49609375 32.953125 C-112.26759766 33.82710937 -112.26759766 33.82710937 -113.0546875 34.71875 C-114.87247267 37.53656333 -115.21619194 39.89535833 -115.68359375 43.203125 C-115.92142578 44.81960938 -115.92142578 44.81960938 -116.1640625 46.46875 C-116.27363281 47.28859375 -116.38320312 48.1084375 -116.49609375 48.953125 C-117.20894531 49.12328125 -117.92179687 49.2934375 -118.65625 49.46875 C-124.58152399 50.96801179 -129.30697935 52.75133101 -134.49609375 55.953125 C-135.15609375 55.953125 -135.81609375 55.953125 -136.49609375 55.953125 C-136.49609375 56.613125 -136.49609375 57.273125 -136.49609375 57.953125 C-137.2540625 58.52933594 -138.01203125 59.10554688 -138.79296875 59.69921875 C-141.85463953 62.25208586 -143.05774449 64.43010434 -144.74609375 68.015625 C-145.24625 69.05847656 -145.74640625 70.10132813 -146.26171875 71.17578125 C-149.58644086 78.656406 -149.70760222 87.24950748 -147.05859375 95.015625 C-146.65833984 96.02302734 -146.65833984 96.02302734 -146.25 97.05078125 C-145.47901058 98.99623125 -144.96348721 100.91565255 -144.49609375 102.953125 C-143.83609375 102.953125 -143.17609375 102.953125 -142.49609375 102.953125 C-141.75359375 103.943125 -141.01109375 104.933125 -140.24609375 105.953125 C-129.91081885 118.22626394 -111.75648126 122.3168532 -96.49609375 123.953125 C-96.82609375 124.943125 -97.15609375 125.933125 -97.49609375 126.953125 C-111.65254751 125.69182314 -122.84680405 122.64819373 -135.49609375 115.953125 C-135.49609375 115.293125 -135.49609375 114.633125 -135.49609375 113.953125 C-136.33140625 113.581875 -136.33140625 113.581875 -137.18359375 113.203125 C-144.84696294 109.06076328 -148.55083285 102.5510144 -151.87109375 94.703125 C-154.19144551 80.78101443 -151.6901531 70.11324906 -143.86328125 58.53515625 C-143.41210938 58.01308594 -142.9609375 57.49101562 -142.49609375 56.953125 C-141.83609375 56.953125 -141.17609375 56.953125 -140.49609375 56.953125 C-140.49609375 56.293125 -140.49609375 55.633125 -140.49609375 54.953125 C-134.47104877 49.94620105 -127.4404709 45.953125 -119.49609375 45.953125 C-119.48191406 45.39625 -119.46773437 44.839375 -119.453125 44.265625 C-119.05762301 37.93759324 -117.20601678 34.02258504 -113.49609375 28.953125 C-113.00109375 28.19 -112.50609375 27.426875 -111.99609375 26.640625 C-107.96085048 22.10097632 -102.27749684 20.35481251 -96.36328125 19.7265625 C-90.56556786 19.50435049 -85.86196932 20.87357885 -80.49609375 22.953125 C-79.01109375 23.448125 -79.01109375 23.448125 -77.49609375 23.953125 C-76.91601562 22.95732422 -76.91601562 22.95732422 -76.32421875 21.94140625 C-70.66889828 12.35255843 -70.66889828 12.35255843 -67.49609375 8.953125 C-66.83609375 8.953125 -66.17609375 8.953125 -65.49609375 8.953125 C-65.16609375 7.963125 -64.83609375 6.973125 -64.49609375 5.953125 C-63.83609375 5.953125 -63.17609375 5.953125 -62.49609375 5.953125 C-62.49609375 5.293125 -62.49609375 4.633125 -62.49609375 3.953125 C-61.50609375 3.953125 -60.51609375 3.953125 -59.49609375 3.953125 C-59.49609375 3.293125 -59.49609375 2.633125 -59.49609375 1.953125 C-41.11760486 -8.11594072 -18.71910027 -11.81105654 0 0 Z " fill="#A3A4A3" transform="translate(273.49609375,218.046875)"/>
<path d="M0 0 C0 1.32 0 2.64 0 4 C-1.32 4.33 -2.64 4.66 -4 5 C-2.68 5.33 -1.36 5.66 0 6 C1.125 11.75 1.125 11.75 0 14 C0.99 14.99 1.98 15.98 3 17 C2.34 18.98 1.68 20.96 1 23 C0.35933594 23.04898438 -0.28132813 23.09796875 -0.94140625 23.1484375 C-5.02311231 23.50125263 -8.5993734 23.86407312 -12.5 25.1875 C-20.41536485 27.02499541 -28.70853867 23.64089928 -35.4375 19.5 C-35.953125 19.005 -36.46875 18.51 -37 18 C-37 17.01 -37 16.02 -37 15 C-35.51965236 15.47550561 -34.04074979 15.95551216 -32.5625 16.4375 C-31.73878906 16.70433594 -30.91507813 16.97117188 -30.06640625 17.24609375 C-28 18 -28 18 -27 19 C-25.5112814 19.08669432 -24.018555 19.10703494 -22.52734375 19.09765625 C-21.17866211 19.09282227 -21.17866211 19.09282227 -19.80273438 19.08789062 C-18.85720703 19.07951172 -17.91167969 19.07113281 -16.9375 19.0625 C-15.5134082 19.05573242 -15.5134082 19.05573242 -14.06054688 19.04882812 C-11.70696935 19.0370011 -9.35351523 19.02052025 -7 19 C-6.67 17.68 -6.34 16.36 -6 15 C-6.99 14.67 -7.98 14.34 -9 14 C-9.6875 11.9375 -9.6875 11.9375 -10 10 C-10.33 11.32 -10.66 12.64 -11 14 C-14.66666667 14 -18.33333333 14 -22 14 C-22.33 13.01 -22.66 12.02 -23 11 C-23.33 11.99 -23.66 12.98 -24 14 C-25.62463842 14.05395478 -27.24978541 14.09277195 -28.875 14.125 C-29.77992188 14.14820313 -30.68484375 14.17140625 -31.6171875 14.1953125 C-34 14 -34 14 -36 12 C-35.625 9.375 -35.625 9.375 -35 7 C-33.02 6.34 -31.04 5.68 -29 5 C-31.97 4.505 -31.97 4.505 -35 4 C-34.67 3.01 -34.34 2.02 -34 1 C-29.71 1 -25.42 1 -21 1 C-21 1.99 -21 2.98 -21 4 C-20.34 4 -19.68 4 -19 4 C-19 3.01 -19 2.02 -19 1 C-17.35 1 -15.7 1 -14 1 C-13.67 1.66 -13.34 2.32 -13 3 C-12.67 2.34 -12.34 1.68 -12 1 C-9.78515625 0.5859375 -9.78515625 0.5859375 -7.0625 0.375 C-6.16660156 0.30023438 -5.27070313 0.22546875 -4.34765625 0.1484375 C-2.90048294 0.05693569 -1.45006316 0 0 0 Z M-8 8 C-8 8.66 -8 9.32 -8 10 C-7.34 9.67 -6.68 9.34 -6 9 C-6.66 8.67 -7.32 8.34 -8 8 Z " fill="#D4D6D6" transform="translate(196,210)"/>
<path d="M0 0 C2.97 0 5.94 0 9 0 C9 11.55 9 23.1 9 35 C6.133125 35.103125 3.26625 35.20625 0.3125 35.3125 C-0.58170654 35.35802002 -1.47591309 35.40354004 -2.3972168 35.45043945 C-6.76934388 35.52643807 -8.46992706 35.42035538 -12.01953125 32.60546875 C-15.8055121 27.62470104 -15.48616899 23.10805044 -15 17 C-13.68158472 13.66926666 -12.47522322 12.39601935 -9.75 10.125 C-6.16073888 8.65666591 -3.73448377 9.19452311 0 10 C0 6.7 0 3.4 0 0 Z M-6 17 C-6 20.3 -6 23.6 -6 27 C-3.525 27.99 -3.525 27.99 -1 29 C0.26237731 26.47524538 0.09856404 24.68799534 0.0625 21.875 C0.05347656 20.96492188 0.04445313 20.05484375 0.03515625 19.1171875 C0.02355469 18.41851562 0.01195312 17.71984375 0 17 C-3.04913228 15.98888907 -3.04913228 15.98888907 -6 17 Z " fill="#DEDEDE" transform="translate(266,270)"/>
<path d="M0 0 C2.64 0 5.28 0 8 0 C9 1 9 1 9.09765625 3.06640625 C9.06510417 5.37760417 9.03255208 7.68880208 9 10 C12.3 10 15.6 10 19 10 C19 10.66 19 11.32 19 12 C19.99 12.33 20.98 12.66 22 13 C24.28219901 16.42329851 24.29741163 17.84137668 24.3125 21.875 C24.32925781 22.90367187 24.34601563 23.93234375 24.36328125 24.9921875 C23.94933376 28.41949466 23.04951391 30.24491572 21 33 C17.89914429 35.06723714 17.27068319 35.24497423 13.76953125 35.1953125 C13.04612549 35.19031738 12.32271973 35.18532227 11.57739258 35.18017578 C10.66497803 35.16196777 9.75256348 35.14375977 8.8125 35.125 C5.904375 35.08375 2.99625 35.0425 0 35 C0 23.45 0 11.9 0 0 Z M10 16 C8.71387324 17.05978933 8.71387324 17.05978933 8.90234375 19.50390625 C8.91394531 20.51324219 8.92554688 21.52257812 8.9375 22.5625 C8.94652344 23.57441406 8.95554687 24.58632813 8.96484375 25.62890625 C8.97644531 26.41136719 8.98804688 27.19382812 9 28 C10.65 28 12.3 28 14 28 C15.69192787 25.41234561 16.00033706 24.01685311 15.9375 20.875 C15.293842 17.77749702 15.293842 17.77749702 12.4375 16.625 C11.633125 16.41875 10.82875 16.2125 10 16 Z " fill="#E2E2E2" transform="translate(254,311)"/>
<path d="M0 0 C1.98 0 3.96 0 6 0 C7.65 3.96 9.3 7.92 11 12 C11.33 8.04 11.66 4.08 12 0 C13.65 0 15.3 0 17 0 C17 4.95 17 9.9 17 15 C17.66 15 18.32 15 19 15 C19 10.05 19 5.1 19 0 C20.65 0 22.3 0 24 0 C24 4.95 24 9.9 24 15 C24.66 15 25.32 15 26 15 C25.7525 14.0925 25.505 13.185 25.25 12.25 C25 9 25 9 26.625 6.6875 C29.24592161 4.82526622 30.79708744 4.16014563 34 4 C36.25 4.75 36.25 4.75 38 6 C39.00496852 9.01490557 39.10335303 11.04181692 39.0625 14.1875 C39.05347656 15.08855469 39.04445312 15.98960937 39.03515625 16.91796875 C39.02355469 17.60503906 39.01195312 18.29210937 39 19 C37.39679026 19.19551338 35.79237014 19.38111983 34.1875 19.5625 C33.29417969 19.66691406 32.40085938 19.77132813 31.48046875 19.87890625 C29 20 29 20 26 19 C24.51876453 18.9193378 23.03417796 18.89238807 21.55078125 18.90234375 C20.70322266 18.90556641 19.85566406 18.90878906 18.98242188 18.91210938 C17.66081055 18.92467773 17.66081055 18.92467773 16.3125 18.9375 C14.97348633 18.94426758 14.97348633 18.94426758 13.60742188 18.95117188 C11.40488013 18.96295017 9.20247401 18.97939836 7 19 C6.67 18.34 6.34 17.68 6 17 C2.97065509 16.34227572 2.97065509 16.34227572 0 16 C0 16.99 0 17.98 0 19 C-1.98 19 -3.96 19 -6 19 C-4.12275039 12.62267685 -2.14328358 6.29304541 0 0 Z M3 7 C4 9 4 9 4 9 Z M4 9 C3.67 9.66 3.34 10.32 3 11 C3.66 11 4.32 11 5 11 C4.67 10.34 4.34 9.68 4 9 Z " fill="#D5D5D5" transform="translate(193,363)"/>
<path d="M0 0 C1.32 0 2.64 0 4 0 C4 1.65 4 3.3 4 5 C4.556875 4.79375 5.11375 4.5875 5.6875 4.375 C8.659538 3.89304789 10.31979941 4.73434972 13 6 C13 6.66 13 7.32 13 8 C13.969375 7.29875 14.93875 6.5975 15.9375 5.875 C18.29084659 4.50578017 19.49078574 3.94272458 22.22265625 4.25 C23.74494258 4.66778012 25.26328702 5.10018931 26.77734375 5.546875 C30.30483209 6.26601146 32.68748927 5.26862113 36 4 C36.33 2.68 36.66 1.36 37 0 C38.65 0 40.3 0 42 0 C42 6.27 42 12.54 42 19 C33 20 33 20 29.4375 18.0625 C28.633125 17.381875 27.82875 16.70125 27 16 C27 16.99 27 17.98 27 19 C23.65559323 19.58718592 20.40060685 20.05863115 17 20 C14.375 18.0625 14.375 18.0625 13 16 C12.2884375 17.0209375 12.2884375 17.0209375 11.5625 18.0625 C9 20 9 20 0 19 C0 12.73 0 6.46 0 0 Z M27 8 C27 10.31 27 12.62 27 15 C27.33 15 27.66 15 28 15 C28 12.69 28 10.38 28 8 C27.67 8 27.34 8 27 8 Z M5 9 C4.67 10.65 4.34 12.3 4 14 C5.32 14.33 6.64 14.66 8 15 C8.33 13.35 8.66 11.7 9 10 C7.68 9.67 6.36 9.34 5 9 Z M33 9 C33 10.65 33 12.3 33 14 C34.32 14 35.64 14 37 14 C37 12.68 37 11.36 37 10 C35.68 9.67 34.36 9.34 33 9 Z M14 10 C14.33 10.66 14.66 11.32 15 12 C15.66 11.34 16.32 10.68 17 10 C16.01 10 15.02 10 14 10 Z " fill="#CACACA" transform="translate(261,363)"/>
<path d="M0 0 C0 2.31 0 4.62 0 7 C-3.08806158 8.54403079 -6.19303622 7.91227801 -9.58984375 7.7421875 C-12.01506376 7.81878733 -12.01506376 7.81878733 -13.796875 9.16015625 C-15.45889782 11.70175609 -15.36467616 13.5483236 -15.3125 16.5625 C-15.30863281 17.53316406 -15.30476562 18.50382812 -15.30078125 19.50390625 C-15.23989886 22.17172335 -15.23989886 22.17172335 -13 24 C-9.87803664 24.46486718 -9.87803664 24.46486718 -6.375 24.625 C-4.59222656 24.73714844 -4.59222656 24.73714844 -2.7734375 24.8515625 C-1.85820312 24.90054687 -0.94296875 24.94953125 0 25 C0 27.31 0 29.62 0 32 C-4.89799311 34.44899656 -13.01112093 33.94928101 -18.15234375 32.31640625 C-21.89006442 30.024318 -23.71027319 27.0841349 -25 23 C-25.80928895 15.24681207 -25.72629857 9.35096371 -21 3 C-20.34 3 -19.68 3 -19 3 C-19 2.34 -19 1.68 -19 1 C-12.33928512 -1.13645572 -6.89836454 -0.93838047 0 0 Z " fill="#E1E1E1" transform="translate(182,272)"/>
<path d="M0 0 C0 2.64 0 5.28 0 8 C-0.67546875 7.96519531 -1.3509375 7.93039062 -2.046875 7.89453125 C-2.93890625 7.86746094 -3.8309375 7.84039062 -4.75 7.8125 C-5.63171875 7.77769531 -6.5134375 7.74289062 -7.421875 7.70703125 C-10.52479441 8.05963573 -11.80554527 8.80058044 -14 11 C-15.11928442 15.95683099 -15.62351516 19.44336841 -13 24 C-10.3618463 25.31907685 -8.37722213 25.06132406 -5.4375 25 C-3.62539219 24.96229685 -1.81190256 24.95346639 0 25 C1 26 1 26 1.0625 29.0625 C1.041875 30.031875 1.02125 31.00125 1 32 C-1.92460429 33.46230215 -4.55652824 33.20908727 -7.8125 33.25 C-9.64748047 33.28867187 -9.64748047 33.28867187 -11.51953125 33.328125 C-15.25789746 32.97568644 -17.04172959 32.25693357 -20 30 C-24.49536517 24.00617977 -25.69480853 19.33815322 -25 12 C-23.8779465 7.96060739 -22.16939075 4.7780132 -19 2 C-12.34916165 -1.32541917 -7.26878827 -1.10902468 0 0 Z " fill="#DEDEDE" transform="translate(209,313)"/>
<path d="M0 0 C2.64 0 5.28 0 8 0 C8.06058594 0.96421875 8.12117187 1.9284375 8.18359375 2.921875 C8.26738281 4.18515625 8.35117188 5.4484375 8.4375 6.75 C8.55931641 8.62945312 8.55931641 8.62945312 8.68359375 10.546875 C8.92515522 13.18317553 9.24283934 15.48037294 10 18 C10.99 17.67 11.98 17.34 13 17 C13.09087891 15.28490234 13.09087891 15.28490234 13.18359375 13.53515625 C13.26798428 12.04425695 13.35263302 10.55337225 13.4375 9.0625 C13.47681641 8.30775391 13.51613281 7.55300781 13.55664062 6.77539062 C13.88671875 1.11328125 13.88671875 1.11328125 15 0 C18.5 -0.125 18.5 -0.125 22 0 C23.68516954 1.68516954 23.13008019 3.78767788 23.1328125 6.09375 C23.13474609 7.63869141 23.13474609 7.63869141 23.13671875 9.21484375 C23.13285156 10.29894531 23.12898438 11.38304687 23.125 12.5 C23.13080078 14.12615234 23.13080078 14.12615234 23.13671875 15.78515625 C23.13542969 16.81511719 23.13414062 17.84507812 23.1328125 18.90625 C23.13168457 19.85822266 23.13055664 20.81019531 23.12939453 21.79101562 C23 24 23 24 22 25 C18.8843708 25.30467105 15.75370638 25.27829403 12.625 25.3125 C11.7484375 25.34150391 10.871875 25.37050781 9.96875 25.40039062 C8.70417969 25.41295898 8.70417969 25.41295898 7.4140625 25.42578125 C6.6401416 25.44036377 5.8662207 25.45494629 5.06884766 25.4699707 C3 25 3 25 1.24243164 23.28491211 C-0.2065859 20.62007518 -0.34815269 19.03234731 -0.29296875 16.015625 C-0.28330078 15.08105469 -0.27363281 14.14648438 -0.26367188 13.18359375 C-0.23853516 12.21550781 -0.21339844 11.24742187 -0.1875 10.25 C-0.17396484 9.26644531 -0.16042969 8.28289062 -0.14648438 7.26953125 C-0.11118726 4.84579585 -0.06188054 2.42317855 0 0 Z " fill="#E3E3E3" transform="translate(225,280)"/>
<path d="M0 0 C2.77830132 1.43845246 4.7710243 2.84364432 6.49609375 5.46875 C7.52088182 10.59269037 7.92181776 15.29583477 5.80859375 20.15625 C3.31401863 23.18537693 1.39358886 25.06040878 -2.5625 25.71484375 C-10.2010926 25.72543819 -10.2010926 25.72543819 -14.06640625 23.40625 C-17.82464294 19.14691509 -17.32730481 15.00170888 -17.296875 9.5 C-16.78082995 4.82724047 -15.50031245 3.26079938 -11.94140625 0.28125 C-7.8445225 -1.08437792 -4.14301458 -1.53383236 0 0 Z M-7.94140625 7.28125 C-9.34598362 10.09040474 -9.19035782 12.16935534 -8.94140625 15.28125 C-7.69792156 17.66430196 -7.69792156 17.66430196 -5.94140625 19.28125 C-5.28140625 19.28125 -4.62140625 19.28125 -3.94140625 19.28125 C-3.94140625 18.62125 -3.94140625 17.96125 -3.94140625 17.28125 C-2.95140625 16.95125 -1.96140625 16.62125 -0.94140625 16.28125 C-0.77463343 12.86468976 -0.77463343 12.86468976 -0.94140625 9.28125 C-2.78024506 6.99396266 -2.78024506 6.99396266 -5.56640625 7.15625 C-6.74203125 7.218125 -6.74203125 7.218125 -7.94140625 7.28125 Z " fill="#E2E2E2" transform="translate(214.94140625,279.71875)"/>
<path d="M0 0 C6.15234375 -0.09765625 6.15234375 -0.09765625 8 0 C9 1 9 1 9.09765625 4.81640625 C9.09098089 6.39846682 9.07901875 7.98051159 9.0625 9.5625 C9.05798828 10.36880859 9.05347656 11.17511719 9.04882812 12.00585938 C9.03700518 14.00393756 9.01906914 16.00197783 9 18 C10.65 18 12.3 18 14 18 C14 12.06 14 6.12 14 0 C16.64 0 19.28 0 22 0 C22 8.25 22 16.5 22 25 C18.926875 25.061875 15.85375 25.12375 12.6875 25.1875 C11.24056763 25.22846802 11.24056763 25.22846802 9.7644043 25.27026367 C8.61838745 25.28150269 8.61838745 25.28150269 7.44921875 25.29296875 C6.66893311 25.3086792 5.88864746 25.32438965 5.0847168 25.34057617 C3 25 3 25 1.24023438 23.80078125 C-0.42394439 21.3844461 -0.34357754 19.81297143 -0.29296875 16.89453125 C-0.28330078 15.91162109 -0.27363281 14.92871094 -0.26367188 13.91601562 C-0.23853516 12.89185547 -0.21339844 11.86769531 -0.1875 10.8125 C-0.17396484 9.77673828 -0.16042969 8.74097656 -0.14648438 7.67382812 C-0.11111389 5.11536301 -0.06175544 2.5579422 0 0 Z " fill="#CECECE" transform="translate(227,321)"/>
<path d="M0 0 C1.06347656 -0.00515625 2.12695312 -0.0103125 3.22265625 -0.015625 C5.9375 0.25 5.9375 0.25 7.9375 2.25 C7.5625 4.875 7.5625 4.875 6.9375 7.25 C4.2975 7.25 1.6575 7.25 -1.0625 7.25 C-0.42441406 7.60191406 0.21367187 7.95382812 0.87109375 8.31640625 C7.58062902 12.32537974 7.58062902 12.32537974 9.3125 16.8125 C8.9375 20.25 8.9375 20.25 7.25 23.1875 C2.33393464 26.24844636 -2.40785908 25.83467484 -8.0625 25.25 C-8.7225 24.92 -9.3825 24.59 -10.0625 24.25 C-10.0625 22.27 -10.0625 20.29 -10.0625 18.25 C-6.7625 17.92 -3.4625 17.59 -0.0625 17.25 C-1.7021875 16.6003125 -1.7021875 16.6003125 -3.375 15.9375 C-6.14801888 14.73305746 -8.29891646 13.79739845 -10.0625 11.25 C-11.00388606 8.42584181 -11.28356354 6.89476867 -10.3125 4.0625 C-7.50260073 -0.01185394 -4.59072728 -0.02231216 0 0 Z " fill="#D5D5D5" transform="translate(290.0625,320.75)"/>
<path d="M0 0 C1.65 0 3.3 0 5 0 C5 1.65 5 3.3 5 5 C5.99 4.67 6.98 4.34 8 4 C8.639375 4.33 9.27875 4.66 9.9375 5 C12.5191286 6.25169872 13.33082956 5.88972348 16 5 C20.04947135 3.85784142 22.2473134 4.0194154 26 6 C27.32229189 8.64458379 27.09677194 10.67761301 27.0625 13.625 C27.05347656 14.62789063 27.04445313 15.63078125 27.03515625 16.6640625 C27.02355469 17.43492187 27.01195312 18.20578125 27 19 C25.39773045 19.22245393 23.79303233 19.42746669 22.1875 19.625 C20.84751953 19.79902344 20.84751953 19.79902344 19.48046875 19.9765625 C17 20 17 20 14 18 C13.67 18.33 13.34 18.66 13 19 C11.35 19 9.7 19 8 19 C8 15.7 8 12.4 8 9 C7.01 9 6.02 9 5 9 C5 12.3 5 15.6 5 19 C3.35 19 1.7 19 0 19 C-0.1968121 16.95920995 -0.38202831 14.91729993 -0.5625 12.875 C-0.66691406 11.73804688 -0.77132812 10.60109375 -0.87890625 9.4296875 C-0.99608016 6.11102007 -0.6655072 3.2437314 0 0 Z M13 11 C14 13 14 13 14 13 Z " fill="#C8C8C8" transform="translate(233,363)"/>
<path d="M0 0 C2.97 0 5.94 0 9 0 C9 9.24 9 18.48 9 28 C10.32 28.33 11.64 28.66 13 29 C12.67 30.98 12.34 32.96 12 35 C4.63894193 35.4907372 4.63894193 35.4907372 1.90649414 33.39208984 C-0.59227016 30.25687501 -0.55250285 28.31623369 -0.64453125 24.3359375 C-0.68126953 23.04945313 -0.71800781 21.76296875 -0.75585938 20.4375 C-0.76512451 19.77105469 -0.77438965 19.10460937 -0.78393555 18.41796875 C-0.81251293 16.37407548 -0.86759736 14.33224841 -0.92773438 12.2890625 C-1.16281535 2.32563069 -1.16281535 2.32563069 0 0 Z " fill="#E5E5E5" transform="translate(184,270)"/>
<path d="M0 0 C2.64 0 5.28 0 8 0 C8 9.24 8 18.48 8 28 C9.32 28.33 10.64 28.66 12 29 C12.042721 30.66611905 12.04063832 32.33382885 12 34 C11 35 11 35 7.125 35.25 C3.307617 35.18853945 3.307617 35.18853945 1.0625 33.8125 C-1.13384755 30.06578948 -1.12755701 25.8701608 -1.1328125 21.62109375 C-1.13410156 20.61755859 -1.13539063 19.61402344 -1.13671875 18.58007812 C-1.13285156 17.54302734 -1.12898437 16.50597656 -1.125 15.4375 C-1.12886719 14.39658203 -1.13273438 13.35566406 -1.13671875 12.28320312 C-1.13542969 11.28095703 -1.13414062 10.27871094 -1.1328125 9.24609375 C-1.13168457 8.33529053 -1.13055664 7.4244873 -1.12939453 6.48608398 C-1.00937295 4.18008442 -0.64947474 2.2086656 0 0 Z " fill="#DDDDDD" transform="translate(213,311)"/>
<path d="M0 0 C1.98 0 3.96 0 6 0 C7.65 3.96 9.3 7.92 11 12 C11.66 8.37 12.32 4.74 13 1 C13.99 1 14.98 1 16 1 C16 5.95 16 10.9 16 16 C16.66 16 17.32 16 18 16 C18 16.66 18 17.32 18 18 C17.195625 17.979375 16.39125 17.95875 15.5625 17.9375 C13.06645115 17.70366379 13.06645115 17.70366379 12 19 C10.33382885 19.04063832 8.66611905 19.042721 7 19 C6.67 18.34 6.34 17.68 6 17 C2.97065509 16.34227572 2.97065509 16.34227572 0 16 C0 16.99 0 17.98 0 19 C-1.98 19 -3.96 19 -6 19 C-4.12275039 12.62267685 -2.14328358 6.29304541 0 0 Z M3 7 C4 9 4 9 4 9 Z M4 9 C3.67 9.66 3.34 10.32 3 11 C3.66 11 4.32 11 5 11 C4.67 10.34 4.34 9.68 4 9 Z " fill="#C7C7C7" transform="translate(193,363)"/>
<path d="M0 0 C1.98 0.66 3.96 1.32 6 2 C7.125 7.75 7.125 7.75 6 10 C6.99 10.99 7.98 11.98 9 13 C8.34 14.98 7.68 16.96 7 19 C6.35933594 19.04898438 5.71867187 19.09796875 5.05859375 19.1484375 C0.97688769 19.50125263 -2.5993734 19.86407312 -6.5 21.1875 C-14.41536485 23.02499541 -22.70853867 19.64089928 -29.4375 15.5 C-29.953125 15.005 -30.46875 14.51 -31 14 C-31 13.01 -31 12.02 -31 11 C-29.51965236 11.47550561 -28.04074979 11.95551216 -26.5625 12.4375 C-25.73878906 12.70433594 -24.91507813 12.97117188 -24.06640625 13.24609375 C-22 14 -22 14 -21 15 C-19.5112814 15.08669432 -18.018555 15.10703494 -16.52734375 15.09765625 C-15.17866211 15.09282227 -15.17866211 15.09282227 -13.80273438 15.08789062 C-12.38444336 15.07532227 -12.38444336 15.07532227 -10.9375 15.0625 C-9.98810547 15.05798828 -9.03871094 15.05347656 -8.06054688 15.04882812 C-5.70696935 15.0370011 -3.35351523 15.02052025 -1 15 C-0.67 13.68 -0.34 12.36 0 11 C-0.99 10.34 -1.98 9.68 -3 9 C-2.34 8.67 -1.68 8.34 -1 8 C-1 6.68 -1 5.36 -1 4 C-0.34 4 0.32 4 1 4 C0.67 2.68 0.34 1.36 0 0 Z " fill="#CCCDCD" transform="translate(190,214)"/>
<path d="M0 0 C1.98 0 3.96 0 6 0 C6 0.66 6 1.32 6 2 C6.66 2 7.32 2 8 2 C8 2.99 8 3.98 8 5 C8.99 5 9.98 5 11 5 C11 3.35 11 1.7 11 0 C12.65 0 14.3 0 16 0 C16 6.27 16 12.54 16 19 C11 19 11 19 9.41796875 17.46875 C8.80888672 16.49421875 8.80888672 16.49421875 8.1875 15.5 C7.55908203 14.52546875 7.55908203 14.52546875 6.91796875 13.53125 C6.61503906 13.0259375 6.31210938 12.520625 6 12 C5.67 14.31 5.34 16.62 5 19 C3.35 19 1.7 19 0 19 C0 12.73 0 6.46 0 0 Z " fill="#BBBBBB" transform="translate(144,363)"/>
<path d="M0 0 C0.33 0 0.66 0 1 0 C1.33 5.28 1.66 10.56 2 16 C2.66 16 3.32 16 4 16 C7 21.625 7 21.625 7 25 C7.66 25 8.32 25 9 25 C9.7425 25.99 10.485 26.98 11.25 28 C21.5852749 40.27313894 39.73961249 44.3637282 55 46 C54.67 46.99 54.34 47.98 54 49 C39.84354624 47.73869814 28.6492897 44.69506873 16 38 C16 37.34 16 36.68 16 36 C15.443125 35.7525 14.88625 35.505 14.3125 35.25 C7.56991705 31.60536057 2.65031845 25.51752471 0.42895508 18.09082031 C-0.27214395 14.67351123 -0.10237903 11.22254325 -0.0625 7.75 C-0.05798828 7.00492187 -0.05347656 6.25984375 -0.04882812 5.4921875 C-0.03709246 3.6614236 -0.0191585 1.83070127 0 0 Z " fill="#ABABAB" transform="translate(122,296)"/>
<path d="M0 0 C6.6 0 13.2 0 20 0 C20 1.32 20 2.64 20 4 C18.35 4 16.7 4 15 4 C15 8.95 15 13.9 15 19 C13.35 19 11.7 19 10 19 C10 14.05 10 9.1 10 4 C8.02 4.33 6.04 4.66 4 5 C4.33 9.29 4.66 13.58 5 18 C3.35 18.33 1.7 18.66 0 19 C0 12.73 0 6.46 0 0 Z " fill="#DCDCDC" transform="translate(162,363)"/>
<path d="M0 0 C1.65 0 3.3 0 5 0 C5 6.27 5 12.54 5 19 C-4 20 -4 20 -7.5625 18.0625 C-8.366875 17.381875 -9.17125 16.70125 -10 16 C-10 16.99 -10 17.98 -10 19 C-11.98 19 -13.96 19 -16 19 C-16 18.67 -16 18.34 -16 18 C-14.35 18 -12.7 18 -11 18 C-11 14.37 -11 10.74 -11 7 C-10.34 7.33 -9.68 7.66 -9 8 C-8.608125 7.525625 -8.21625 7.05125 -7.8125 6.5625 C-5.59191626 4.64820367 -3.86624291 4.38733012 -1 4 C-0.67 2.68 -0.34 1.36 0 0 Z M-4 9 C-4 10.65 -4 12.3 -4 14 C-2.68 14 -1.36 14 0 14 C0 12.68 0 11.36 0 10 C-1.32 9.67 -2.64 9.34 -4 9 Z " fill="#BCBCBC" transform="translate(298,363)"/>
<path d="M0 0 C0.33 0 0.66 0 1 0 C1 2.64 1 5.28 1 8 C0.28714844 8.17015625 -0.42570312 8.3403125 -1.16015625 8.515625 C-7.08543024 10.01488679 -11.8108856 11.79820601 -17 15 C-17.66 15 -18.32 15 -19 15 C-19 15.66 -19 16.32 -19 17 C-19.75796875 17.57621094 -20.5159375 18.15242188 -21.296875 18.74609375 C-24.35854578 21.29896086 -25.56165074 23.47697934 -27.25 27.0625 C-27.75015625 28.10535156 -28.2503125 29.14820313 -28.765625 30.22265625 C-30.28927249 33.65086309 -31.12564516 36.28919336 -31.09765625 40.01171875 C-31.09443359 40.76904297 -31.09121094 41.52636719 -31.08789062 42.30664062 C-31.07951172 43.09232422 -31.07113281 43.87800781 -31.0625 44.6875 C-31.05798828 45.48478516 -31.05347656 46.28207031 -31.04882812 47.10351562 C-31.0370585 49.06904257 -31.01912348 51.03453085 -31 53 C-31.474375 52.505 -31.94875 52.01 -32.4375 51.5 C-33.75923698 49.88457803 -33.75923698 49.88457803 -35 50 C-35.68253022 37.0129666 -33.73413175 26.10663816 -25 16 C-24.34 16 -23.68 16 -23 16 C-23 15.34 -23 14.68 -23 14 C-21.20703125 12.5625 -21.20703125 12.5625 -18.8125 11 C-18.03519531 10.484375 -17.25789063 9.96875 -16.45703125 9.4375 C-12.53123443 7.14069041 -9.27249862 5.71957632 -4.6875 5.875 C-3.470625 5.91625 -2.25375 5.9575 -1 6 C-0.67 4.02 -0.34 2.04 0 0 Z " fill="#B4B5B5" transform="translate(156,259)"/>
<path d="M0 0 C2.31 0 4.62 0 7 0 C7 7.59 7 15.18 7 23 C5.35 23 3.7 23 2 23 C2 22.34 2 21.68 2 21 C1.01 20.67 0.02 20.34 -1 20 C-0.67 19.34 -0.34 18.68 0 18 C0.08308638 16.62451844 0.10736016 15.24514204 0.09765625 13.8671875 C0.09443359 13.06152344 0.09121094 12.25585938 0.08789062 11.42578125 C0.07951172 10.58402344 0.07113281 9.74226563 0.0625 8.875 C0.05798828 8.02550781 0.05347656 7.17601562 0.04882812 6.30078125 C0.03702874 4.20049091 0.01909306 2.1002367 0 0 Z " fill="#FAFAFA" transform="translate(242,322)"/>
<path d="M0 0 C1.65 0 3.3 0 5 0 C5 4.95 5 9.9 5 15 C5.66 15 6.32 15 7 15 C7 10.05 7 5.1 7 0 C8.65 0 10.3 0 12 0 C12.06058594 1.12019531 12.12117187 2.24039062 12.18359375 3.39453125 C12.26801424 4.86719984 12.35266149 6.33985544 12.4375 7.8125 C12.47681641 8.55048828 12.51613281 9.28847656 12.55664062 10.04882812 C12.74381035 13.23071342 12.98720793 15.96162378 14 19 C9.71 19 5.42 19 1 19 C1 18.67 1 18.34 1 18 C2.65 18 4.3 18 6 18 C6 17.34 6 16.68 6 16 C5.34 16 4.68 16 4 16 C4 11.05 4 6.1 4 1 C3.01 1 2.02 1 1 1 C0.67 2.32 0.34 3.64 0 5 C0 3.35 0 1.7 0 0 Z " fill="#C5C5C5" transform="translate(205,363)"/>
<path d="M0 0 C1.98 0.66 3.96 1.32 6 2 C7.125 7.75 7.125 7.75 6 10 C6.99 10.99 7.98 11.98 9 13 C8.34 14.98 7.68 16.96 7 19 C4.36 19 1.72 19 -1 19 C-0.67 16.36 -0.34 13.72 0 11 C-0.99 10.34 -1.98 9.68 -3 9 C-2.34 8.67 -1.68 8.34 -1 8 C-1 6.68 -1 5.36 -1 4 C-0.34 4 0.32 4 1 4 C0.67 2.68 0.34 1.36 0 0 Z " fill="#B2B3B2" transform="translate(190,214)"/>
<path d="M0 0 C4.29 0 8.58 0 13 0 C13.33 1.65 13.66 3.3 14 5 C13.01 5.66 12.02 6.32 11 7 C10.67 6.34 10.34 5.68 10 5 C9.9175 5.78375 9.835 6.5675 9.75 7.375 C9 10 9 10 7.375 11.375 C4.06071949 12.24717908 1.32887611 11.64016848 -2 11 C-1.67 9.35 -1.34 7.7 -1 6 C0.98 5.34 2.96 4.68 5 4 C2.03 3.505 2.03 3.505 -1 3 C-0.67 2.01 -0.34 1.02 0 0 Z " fill="#F4F5F6" transform="translate(162,211)"/>
<path d="M0 0 C0.99 0.33 1.98 0.66 3 1 C4.1875 4.0625 4.1875 4.0625 5 7 C6.32 7 7.64 7 9 7 C9 7.99 9 8.98 9 10 C7.33720673 11.0064275 5.67016516 12.00585407 4 13 C2.67206394 15.06700655 2.67206394 15.06700655 2 17 C1.34 17 0.68 17 0 17 C-0.639375 16.030625 -1.27875 15.06125 -1.9375 14.0625 C-3.71061007 10.75744775 -3.71061007 10.75744775 -7 10 C-7 9.01 -7 8.02 -7 7 C-5.824375 6.6596875 -5.824375 6.6596875 -4.625 6.3125 C-1.78125 5.21875 -1.78125 5.21875 -0.6875 2.375 C-0.460625 1.59125 -0.23375 0.8075 0 0 Z M1 7 C0.34 7.66 -0.32 8.32 -1 9 C-0.01 9.33 0.98 9.66 2 10 C1.67 9.01 1.34 8.02 1 7 Z " fill="#BEC0C0" transform="translate(137,244)"/>
<path d="M0 0 C2 0 2 0 4.4375 2.375 C5.283125 3.24125 6.12875 4.1075 7 5 C7.99 5.66 8.98 6.32 10 7 C10 7.66 10 8.32 10 9 C8.576875 9.61875 8.576875 9.61875 7.125 10.25 C3.99283376 12.0040131 3.13499394 12.70851757 2 16 C1.01 15.67 0.02 15.34 -1 15 C-1 13.68 -1 12.36 -1 11 C-2.98 10.34 -4.96 9.68 -7 9 C-7 8.01 -7 7.02 -7 6 C-6.21625 5.7525 -5.4325 5.505 -4.625 5.25 C-1.67682892 3.84610901 -1.0975223 2.99324263 0 0 Z M0 6 C0 6.99 0 7.98 0 9 C0.99 8.67 1.98 8.34 3 8 C2.67 7.34 2.34 6.68 2 6 C1.34 6 0.68 6 0 6 Z " fill="#BDBDBD" transform="translate(298,211)"/>
<path d="M0 0 C0.99 0 1.98 0 3 0 C3.61875 1.4540625 3.61875 1.4540625 4.25 2.9375 C5.64899168 6.12260099 5.64899168 6.12260099 8.1875 6.875 C8.785625 6.91625 9.38375 6.9575 10 7 C10 7.99 10 8.98 10 10 C8.35 10.33 6.7 10.66 5 11 C4.34 12.98 3.68 14.96 3 17 C2.01 17 1.02 17 0 17 C0 16.01 0 15.02 0 14 C-0.66 13.67 -1.32 13.34 -2 13 C-2.33 12.34 -2.66 11.68 -3 11 C-3.99 10.67 -4.98 10.34 -6 10 C-6 9.01 -6 8.02 -6 7 C-4.35 6.67 -2.7 6.34 -1 6 C-0.67 4.02 -0.34 2.04 0 0 Z M1 7 C0.67 7.99 0.34 8.98 0 10 C0.99 10 1.98 10 3 10 C2.67 9.01 2.34 8.02 2 7 C1.67 7 1.34 7 1 7 Z " fill="#BBBCBC" transform="translate(196,188)"/>
<path d="M0 0 C2 1 2 1 3.375 3.4375 C5.07868328 6.12407748 6.08653091 6.89489103 9 8 C7.06745228 10.0245738 5.36841312 11.42105792 3 13 C2.67 13.99 2.34 14.98 2 16 C1.01 16 0.02 16 -1 16 C-1.226875 15.195625 -1.45375 14.39125 -1.6875 13.5625 C-2.120625 12.716875 -2.55375 11.87125 -3 11 C-5.54775306 10.10613836 -5.54775306 10.10613836 -8 10 C-8 9.01 -8 8.02 -8 7 C-7.236875 6.773125 -6.47375 6.54625 -5.6875 6.3125 C-2.45263699 4.73268318 -1.58358642 3.16717283 0 0 Z M0 7 C-0.33 7.99 -0.66 8.98 -1 10 C-0.01 10 0.98 10 2 10 C1.67 9.01 1.34 8.02 1 7 C0.67 7 0.34 7 0 7 Z " fill="#BEC2C1" transform="translate(313,244)"/>
<path d="M0 0 C2.64 0 5.28 0 8 0 C7.67 0.66 7.34 1.32 7 2 C6.77377919 3.70363822 6.59111527 5.41328701 6.4375 7.125 C6.35371094 8.03507812 6.26992188 8.94515625 6.18359375 9.8828125 C6.12300781 10.58148438 6.06242187 11.28015625 6 12 C4.35 12 2.7 12 1 12 C1 12.66 1 13.32 1 14 C-1.97 13.505 -1.97 13.505 -5 13 C-5.3125 10.1875 -5.3125 10.1875 -5 7 C-2.625 5.1875 -2.625 5.1875 0 4 C0.66 3.67 1.32 3.34 2 3 C2 2.34 2 1.68 2 1 C1.34 0.67 0.68 0.34 0 0 Z " fill="#E1E1E1" transform="translate(281,369)"/>
<path d="M0 0 C1.32 0 2.64 0 4 0 C4 6.27 4 12.54 4 19 C-1 19 -1 19 -2.875 17.3125 C-4.27861489 14.42729162 -3.92054342 13.01268757 -3 10 C-2.34 10 -1.68 10 -1 10 C-0.67 6.7 -0.34 3.4 0 0 Z " fill="#D0D0D0" transform="translate(156,363)"/>
<path d="M0 0 C6.93 0.495 6.93 0.495 14 1 C14.33 2.65 14.66 4.3 15 6 C14 7 14 7 11.34765625 7.1328125 C10.26355469 7.13023437 9.17945313 7.12765625 8.0625 7.125 C6.44021484 7.12886719 6.44021484 7.12886719 4.78515625 7.1328125 C2 7 2 7 0 6 C0 4.02 0 2.04 0 0 Z " fill="#ECECEC" transform="translate(280,339)"/>
<path d="M0 0 C0.33 0 0.66 0 1 0 C1.46485207 11.94841985 0.85297906 20.91248072 -6.5 30.6015625 C-8 32 -8 32 -11 32 C-10.3931821 28.93894083 -9.41058033 26.91809926 -7.625 24.375 C-4.68871555 19.86418621 -3.30696982 15.18537621 -2 10 C-1.34 10 -0.68 10 0 10 C0 6.7 0 3.4 0 0 Z " fill="#A8A9A8" transform="translate(324,297)"/>
<path d="M0 0 C3.74086431 3.22488302 5.28439632 6.39906285 7 11 C7.391875 12.03125 7.78375 13.0625 8.1875 14.125 C9.36653749 19.74810186 9.15492833 25.27625894 9 31 C8.01 30.67 7.02 30.34 6 30 C5.90203125 29.10539062 5.8040625 28.21078125 5.703125 27.2890625 C4.74991249 19.58118891 3.20240708 13.05638616 0 6 C-1 3 -1 3 0 0 Z " fill="#A4A5A5" transform="translate(317,277)"/>
<path d="M0 0 C1.04220703 0.58394531 1.04220703 0.58394531 2.10546875 1.1796875 C1.55375 1.45296875 1.00203125 1.72625 0.43359375 2.0078125 C-7.15558974 5.8278713 -14.27150211 9.82812814 -20.89453125 15.1796875 C-20.89453125 14.5196875 -20.89453125 13.8596875 -20.89453125 13.1796875 C-21.55453125 12.8496875 -22.21453125 12.5196875 -22.89453125 12.1796875 C-22.23453125 12.1796875 -21.57453125 12.1796875 -20.89453125 12.1796875 C-20.56453125 11.1896875 -20.23453125 10.1996875 -19.89453125 9.1796875 C-19.23453125 9.1796875 -18.57453125 9.1796875 -17.89453125 9.1796875 C-17.89453125 8.5196875 -17.89453125 7.8596875 -17.89453125 7.1796875 C-16.90453125 7.1796875 -15.91453125 7.1796875 -14.89453125 7.1796875 C-14.89453125 6.5196875 -14.89453125 5.8596875 -14.89453125 5.1796875 C-13.01086272 4.11618087 -11.11199835 3.07955521 -9.20703125 2.0546875 C-8.15128906 1.47460938 -7.09554687 0.89453125 -6.0078125 0.296875 C-2.89453125 -0.8203125 -2.89453125 -0.8203125 0 0 Z " fill="#9E9E9E" transform="translate(228.89453125,214.8203125)"/>
<path d="M0 0 C1.39686075 0.38350419 2.78877908 0.78536861 4.17578125 1.203125 C9.63258716 2.76957353 14.83164695 3.86905053 20.48828125 4.453125 C20.15828125 5.443125 19.82828125 6.433125 19.48828125 7.453125 C1.63178922 5.71052819 1.63178922 5.71052819 -6.51171875 2.453125 C-4.52243265 -0.68705076 -3.7452342 -0.58324003 0 0 Z " fill="#B6B6B6" transform="translate(156.51171875,337.546875)"/>
<path d="M0 0 C0.66 0 1.32 0 2 0 C1.352422 3.71919795 -0.31573529 6.30515853 -2.375 9.4375 C-4.6528524 12.92212952 -6.87995413 16.41673228 -9 20 C-9.99 19.67 -10.98 19.34 -12 19 C-12 18.01 -12 17.02 -12 16 C-11.01 16 -10.02 16 -9 16 C-8.95875 15.175 -8.9175 14.35 -8.875 13.5 C-7.497829 7.99131598 -3.97160992 3.97160992 0 0 Z " fill="#9DA0A0" transform="translate(206,228)"/>
<path d="M0 0 C0.99 0.99 1.98 1.98 3 3 C3.99 2.01 4.98 1.02 6 0 C5.67 1.32 5.34 2.64 5 4 C5.66 4.33 6.32 4.66 7 5 C7.66 4.34 8.32 3.68 9 3 C8.67 4.98 8.34 6.96 8 9 C6.35 9.33 4.7 9.66 3 10 C2.67 9.01 2.34 8.02 2 7 C1.67 7.99 1.34 8.98 1 10 C-2.3 10 -5.6 10 -9 10 C-9.33 9.34 -9.66 8.68 -10 8 C-8.6078125 8.061875 -8.6078125 8.061875 -7.1875 8.125 C-3.84190281 8.27136339 -3.84190281 8.27136339 -1 6 C-0.26656572 2.93443402 -0.26656572 2.93443402 0 0 Z " fill="#A2A8A8" transform="translate(171,214)"/>
<path d="M0 0 C0.99 0 1.98 0 3 0 C3 4.95 3 9.9 3 15 C3.66 15 4.32 15 5 15 C5 15.66 5 16.32 5 17 C3.35 17 1.7 17 0 17 C-1.37745568 11.49017726 -1.8198497 5.45954909 0 0 Z " fill="#FDFDFD" transform="translate(206,364)"/>
<path d="M0 0 C-0.99 0.66 -1.98 1.32 -3 2 C-3.72382467 4.05925139 -3.72382467 4.05925139 -4 6 C-3.34 6.33 -2.68 6.66 -2 7 C-2.33 8.32 -2.66 9.64 -3 11 C-4.32 11 -5.64 11 -7 11 C-7.33 9.35 -7.66 7.7 -8 6 C-9.32 6 -10.64 6 -12 6 C-11.0799075 2.82149863 -10.58564751 1.34822284 -7.6875 -0.375 C-4.72850644 -1.06313804 -2.89648559 -0.82756731 0 0 Z " fill="#C3C3C3" transform="translate(230,368)"/>
<path d="M0 0 C-0.33 0.66 -0.66 1.32 -1 2 C-3.84375 2.37890625 -3.84375 2.37890625 -7.5 2.5625 C-13.03463463 2.87941159 -18.49736433 3.3358888 -24 4 C-18.28734156 -2.41575486 -7.74249421 -1.93562355 0 0 Z " fill="#B0B0B0" transform="translate(251,212)"/>
<path d="M0 0 C1.32 0.33 2.64 0.66 4 1 C3.505 1.969375 3.01 2.93875 2.5 3.9375 C-0.17533609 10.8582051 0.77639953 18.71228109 1 26 C0.525625 25.505 0.05125 25.01 -0.4375 24.5 C-1.75923698 22.88457803 -1.75923698 22.88457803 -3 23 C-3.32098157 14.64259099 -3.21819111 7.77729519 0 0 Z " fill="#959695" transform="translate(124,286)"/>
<path d="M0 0 C4.45165631 1.39909198 6.96606091 3.47407079 10 7 C11.3125 9.8125 11.3125 9.8125 12 12 C10.0625 11.6875 10.0625 11.6875 8 11 C7.67 10.01 7.34 9.02 7 8 C6.01 7.67 5.02 7.34 4 7 C4 6.34 4 5.68 4 5 C1.525 4.01 1.525 4.01 -1 3 C-0.67 2.01 -0.34 1.02 0 0 Z " fill="#B7BDBC" transform="translate(306,268)"/>
<path d="M0 0 C0.33 0 0.66 0 1 0 C1 2.64 1 5.28 1 8 C-0.74635165 8.53293835 -2.49727652 9.05090663 -4.25 9.5625 C-5.22453125 9.85253906 -6.1990625 10.14257812 -7.203125 10.44140625 C-9.96243932 10.99249836 -11.3912824 10.93789609 -14 10 C-11.78631706 7.78631706 -10.06983375 6.13447079 -6.88671875 5.734375 C-4.92253213 5.74833014 -2.9597375 5.86713644 -1 6 C-0.67 4.02 -0.34 2.04 0 0 Z " fill="#ACADAC" transform="translate(156,259)"/>
<path d="M0 0 C0.33 0 0.66 0 1 0 C1.33 5.28 1.66 10.56 2 16 C2.66 16 3.32 16 4 16 C5.49821059 19.37097383 6 21.20442119 6 25 C3 24 3 24 1.3125 20.9375 C-1.02396871 14.30533622 -0.22688697 6.92425418 0 0 Z " fill="#CED0D0" transform="translate(122,296)"/>
<path d="M0 0 C3.465 1.98 3.465 1.98 7 4 C5.06745228 6.0245738 3.36841312 7.42105792 1 9 C0.67 9.99 0.34 10.98 0 12 C-0.99 11.67 -1.98 11.34 -3 11 C-2.34 11 -1.68 11 -1 11 C-1.66 9.35 -2.32 7.7 -3 6 C-2.01 6 -1.02 6 0 6 C-0.99 4.68 -1.98 3.36 -3 2 C-2.01 2 -1.02 2 0 2 C0 1.34 0 0.68 0 0 Z " fill="#B0B3B2" transform="translate(315,248)"/>
<path d="M0 0 C2 1.375 2 1.375 4 3 C4 3.66 4 4.32 4 5 C4.66 5 5.32 5 6 5 C7.32 7.31 8.64 9.62 10 12 C8.68 12.33 7.36 12.66 6 13 C2 7.25 2 7.25 2 5 C1.34 5 0.68 5 0 5 C0 4.34 0 3.68 0 3 C-0.99 2.67 -1.98 2.34 -3 2 C-2.01 1.34 -1.02 0.68 0 0 Z " fill="#939494" transform="translate(281,225)"/>
<path d="M0 0 C0 1.32 0 2.64 0 4 C-1.98 4 -3.96 4 -6 4 C-5.67 5.32 -5.34 6.64 -5 8 C-5.99 8 -6.98 8 -8 8 C-7.34 9.65 -6.68 11.3 -6 13 C-6.99 13 -7.98 13 -9 13 C-9 11.68 -9 10.36 -9 9 C-9.66 8.67 -10.32 8.34 -11 8 C-10.34 7.67 -9.68 7.34 -9 7 C-8.54625 6.01 -8.0925 5.02 -7.625 4 C-6 1 -6 1 -3.9375 0.125 C-2.62706319 0.04045569 -1.31316121 0 0 0 Z " fill="#EFF0F0" transform="translate(196,210)"/>
<path d="M0 0 C0.4125 0.474375 0.825 0.94875 1.25 1.4375 C3.182185 3.16266518 4.48192275 3.56584875 7 4 C7 4.99 7 5.98 7 7 C5.35 7.33 3.7 7.66 2 8 C1.67 8.99 1.34 9.98 1 11 C0.67 10.34 0.34 9.68 0 9 C-0.66 8.67 -1.32 8.34 -2 8 C-1.34 8 -0.68 8 0 8 C-0.66 6.02 -1.32 4.04 -2 2 C-1.34 2 -0.68 2 0 2 C0 1.34 0 0.68 0 0 Z " fill="#B9C5B9" transform="translate(199,191)"/>
<path d="M0 0 C0.33 0 0.66 0 1 0 C1 1.65 1 3.3 1 5 C1.5775 5.103125 2.155 5.20625 2.75 5.3125 C5.32049158 6.09792798 6.93657284 7.30504197 9 9 C8.01 9.66 7.02 10.32 6 11 C3.36 9.68 0.72 8.36 -2 7 C-2.125 4.625 -2.125 4.625 -2 2 C-1.34 1.34 -0.68 0.68 0 0 Z " fill="#919291" transform="translate(298,259)"/>
<path d="M0 0 C2.31 0 4.62 0 7 0 C7.33 0.66 7.66 1.32 8 2 C7.0625 4.625 7.0625 4.625 6 7 C4.125 6.6875 4.125 6.6875 2 6 C1.34 5.01 0.68 4.02 0 3 C0.66 3 1.32 3 2 3 C2 2.34 2 1.68 2 1 C1.34 0.67 0.68 0.34 0 0 Z " fill="#C1C3C2" transform="translate(191,226)"/>
<path d="M0 0 C-0.99 0.66 -1.98 1.32 -3 2 C-2.67 2.99 -2.34 3.98 -2 5 C-3.98 5.33 -5.96 5.66 -8 6 C-8.66 4.68 -9.32 3.36 -10 2 C-6.27511755 -0.66063032 -4.42132508 -1.38955931 0 0 Z " fill="#A7A7A7" transform="translate(286,368)"/>
<path d="M0 0 C0.33 0 0.66 0 1 0 C1.02714735 2.22909871 1.04646254 4.45829367 1.0625 6.6875 C1.07410156 7.92886719 1.08570313 9.17023438 1.09765625 10.44921875 C1.01478673 13.46235454 0.70839449 16.08275339 0 19 C-0.99 19 -1.98 19 -3 19 C-2.505 14.545 -2.505 14.545 -2 10 C-1.34 10 -0.68 10 0 10 C0 6.7 0 3.4 0 0 Z " fill="#C5C6C6" transform="translate(324,297)"/>
<path d="M0 0 C4.28906722 0.50459614 8.11298145 1.05649073 12 3 C12.33 3.66 12.66 4.32 13 5 C12.01 5 11.02 5 10 5 C9.67 5.66 9.34 6.32 9 7 C4.545 5.02 4.545 5.02 0 3 C0 2.01 0 1.02 0 0 Z " fill="#929494" transform="translate(184,239)"/>
<path d="M0 0 C1.21236328 0.01353516 1.21236328 0.01353516 2.44921875 0.02734375 C3.37154297 0.04474609 3.37154297 0.04474609 4.3125 0.0625 C4.3125 0.7225 4.3125 1.3825 4.3125 2.0625 C5.3025 2.3925 6.2925 2.7225 7.3125 3.0625 C2.3625 3.0625 -2.5875 3.0625 -7.6875 3.0625 C-7.6875 2.4025 -7.6875 1.7425 -7.6875 1.0625 C-4.80538698 0.10179566 -2.98899956 -0.04331883 0 0 Z " fill="#BBBDBC" transform="translate(179.6875,237.9375)"/>
<path d="M0 0 C3.465 1.98 3.465 1.98 7 4 C7 4.66 7 5.32 7 6 C5.02 6.66 3.04 7.32 1 8 C1 7.34 1 6.68 1 6 C0.34 5.67 -0.32 5.34 -1 5 C-0.67 3.35 -0.34 1.7 0 0 Z " fill="#9B9B9B" transform="translate(301,214)"/>
<path d="M0 0 C2.3125 -0.3125 2.3125 -0.3125 5 0 C7.63560713 3.27178817 8 4.72068147 8 9 C7.34 9 6.68 9 6 9 C4.64721885 7.01310269 3.31431695 5.01254782 2 3 C1.34 2.67 0.68 2.34 0 2 C0 1.34 0 0.68 0 0 Z " fill="#D7D9D9" transform="translate(131,252)"/>
<path d="M0 0 C4.74918662 0.46560653 8.10782405 1.16932658 12 4 C12 4.33 12 4.66 12 5 C7.12335991 5.34833144 4.22949995 4.41685712 0 2 C0 1.34 0 0.68 0 0 Z " fill="#C4C5C5" transform="translate(142,334)"/>
<path d="M0 0 C1.98 0 3.96 0 6 0 C5.34 1.98 4.68 3.96 4 6 C3.34 6 2.68 6 2 6 C1.67 5.34 1.34 4.68 1 4 C0.01 5.32 -0.98 6.64 -2 8 C-1.125 2.25 -1.125 2.25 0 0 Z " fill="#A5A8A6" transform="translate(184,211)"/>
<path d="M0 0 C0.66 0.33 1.32 0.66 2 1 C2 1.99 2 2.98 2 4 C-2.22222222 7 -2.22222222 7 -5 7 C-5.33 7.66 -5.66 8.32 -6 9 C-6.375 6.75 -6.375 6.75 -6 4 C-3 1.6875 -3 1.6875 0 0 Z " fill="#929493" transform="translate(142,267)"/>
<path d="M0 0 C2.64 0 5.28 0 8 0 C8.33 0.66 8.66 1.32 9 2 C8.34 2 7.68 2 7 2 C6.67 2.99 6.34 3.98 6 5 C3.69 4.34 1.38 3.68 -1 3 C-0.67 2.01 -0.34 1.02 0 0 Z " fill="#CDCDCD" transform="translate(162,211)"/>
<path d="M0 0 C1.98 0 3.96 0 6 0 C6 1.66666667 6 3.33333333 6 5 C3.33333333 5 0.66666667 5 -2 5 C-1.34 3.35 -0.68 1.7 0 0 Z " fill="#A3A3A4" transform="translate(162,216)"/>
<path d="M0 0 C0.78375 0.04125 1.5675 0.0825 2.375 0.125 C2.375 0.785 2.375 1.445 2.375 2.125 C1.05232273 3.13905257 -0.28224831 4.13768258 -1.625 5.125 C-2.285 6.115 -2.945 7.105 -3.625 8.125 C-4.25 5.25 -4.25 5.25 -4.625 2.125 C-2.625 0.125 -2.625 0.125 0 0 Z " fill="#BEC1C0" transform="translate(142.625,251.875)"/>
<path d="M0 0 C0.99 0 1.98 0 3 0 C2.45276317 3.37462715 1.9451 5.08235 0 8 C-0.99 7.67 -1.98 7.34 -3 7 C-3 6.01 -3 5.02 -3 4 C-2.01 4 -1.02 4 0 4 C0 2.68 0 1.36 0 0 Z " fill="#B8B9B8" transform="translate(197,240)"/>
<path d="M0 0 C0.66 0.33 1.32 0.66 2 1 C1.67 2.32 1.34 3.64 1 5 C3.64 5 6.28 5 9 5 C9 5.33 9 5.66 9 6 C5.7 6.33 2.4 6.66 -1 7 C-1.33 5.68 -1.66 4.36 -2 3 C-1.34 2.01 -0.68 1.02 0 0 Z " fill="#949494" transform="translate(251,376)"/>
<path d="M0 0 C2.96175123 0.61277612 4.38058783 1.25372522 7 3 C6.67 4.32 6.34 5.64 6 7 C4.68 7 3.36 7 2 7 C1.7834375 5.824375 1.7834375 5.824375 1.5625 4.625 C1.12201075 2.03578982 1.12201075 2.03578982 0 0 Z " fill="#ABABAB" transform="translate(221,372)"/>
<path d="M0 0 C2.64 0 5.28 0 8 0 C8 0.99 8 1.98 8 3 C5.69 3.66 3.38 4.32 1 5 C0.67 3.35 0.34 1.7 0 0 Z " fill="#DCE9E9" transform="translate(244,369)"/>
<path d="M0 0 C0.89332031 0.22042969 1.78664062 0.44085938 2.70703125 0.66796875 C4.05861328 0.98701172 4.05861328 0.98701172 5.4375 1.3125 C6.12457031 1.49167969 6.81164062 1.67085938 7.51953125 1.85546875 C5.81640625 3.40625 5.81640625 3.40625 3.51953125 4.85546875 C1.16015625 4.7109375 1.16015625 4.7109375 -1.23046875 4.04296875 C-2.0296875 3.83027344 -2.82890625 3.61757813 -3.65234375 3.3984375 C-4.55726563 3.12966797 -4.55726563 3.12966797 -5.48046875 2.85546875 C-3.67264042 0.4710573 -3.06905193 -0.17882665 0 0 Z " fill="#797A79" transform="translate(155.48046875,337.14453125)"/>
<path d="M0 0 C0.33 0 0.66 0 1 0 C1 2.64 1 5.28 1 8 C-1.875 8.125 -1.875 8.125 -5 8 C-5.66 7.34 -6.32 6.68 -7 6 C-5.02 6 -3.04 6 -1 6 C-0.67 4.02 -0.34 2.04 0 0 Z " fill="#DBDCDB" transform="translate(156,259)"/>
<path d="M0 0 C0.33 0.66 0.66 1.32 1 2 C1.99 2.33 2.98 2.66 4 3 C5.1875 5.5625 5.1875 5.5625 6 8 C5.01 8.66 4.02 9.32 3 10 C0 3.375 0 3.375 0 0 Z " fill="#A3A5A4" transform="translate(288,235)"/>
<path d="M0 0 C1.32 0 2.64 0 4 0 C4.33 1.65 4.66 3.3 5 5 C4.01 5.66 3.02 6.32 2 7 C1.87625 6.360625 1.7525 5.72125 1.625 5.0625 C1.315625 4.0415625 1.315625 4.0415625 1 3 C0.34 2.67 -0.32 2.34 -1 2 C-0.67 1.34 -0.34 0.68 0 0 Z " fill="#E5E7E6" transform="translate(171,211)"/>
<path d="M0 0 C2.79872437 2.52788007 4.45773019 4.20411134 5 8 C3.68 8 2.36 8 1 8 C-1.125 3.375 -1.125 3.375 0 0 Z " fill="#878887" transform="translate(317,277)"/>
<path d="M0 0 C3 3.75 3 3.75 3 6 C4.32 6 5.64 6 7 6 C6.67 6.99 6.34 7.98 6 9 C6 8.34 6 7.68 6 7 C4.02 7.33 2.04 7.66 0 8 C-1.09658936 4.71023192 -0.79953138 3.28696233 0 0 Z " fill="#9EA09F" transform="translate(139,245)"/>
<path d="M0 0 C1.32 0 2.64 0 4 0 C3.42415568 2.38564077 2.77772405 4.66682784 2 7 C1.34 7 0.68 7 0 7 C0 4.69 0 2.38 0 0 Z " fill="#D9D9D9" transform="translate(298,220)"/>
<path d="M0 0 C0.4125 0.474375 0.825 0.94875 1.25 1.4375 C3.182185 3.16266518 4.48192275 3.56584875 7 4 C6.67 4.99 6.34 5.98 6 7 C6 6.34 6 5.68 6 5 C3.69 5 1.38 5 -1 5 C-1.33 4.01 -1.66 3.02 -2 2 C-1.34 2 -0.68 2 0 2 C0 1.34 0 0.68 0 0 Z " fill="#969996" transform="translate(199,191)"/>
<path d="M0 0 C0.33 0.99 0.66 1.98 1 3 C1.66 3 2.32 3 3 3 C3.66 4.32 4.32 5.64 5 7 C3.68 7.33 2.36 7.66 1 8 C-1.125 3.375 -1.125 3.375 0 0 Z " fill="#969797" transform="translate(128,318)"/>
<path d="M0 0 C0.66 0 1.32 0 2 0 C1.49396008 2.16874252 1.00016187 3.99967627 0 6 C-0.99 6 -1.98 6 -3 6 C-2.42655063 3.13275314 -2.1385485 2.1385485 0 0 Z " fill="#C0C2C1" transform="translate(206,228)"/>
<path d="M0 0 C-0.33 0.66 -0.66 1.32 -1 2 C-3.64 2 -6.28 2 -9 2 C-9 1.34 -9 0.68 -9 0 C-5.93109813 -1.53445094 -3.29905734 -0.54984289 0 0 Z " fill="#F7F7F7" transform="translate(251,212)"/>
<path d="M0 0 C0.66 1.32 1.32 2.64 2 4 C1.34 4.66 0.68 5.32 0 6 C-0.99 6 -1.98 6 -3 6 C-2.42655063 3.13275314 -2.1385485 2.1385485 0 0 Z " fill="#9B9B9B" transform="translate(316,323)"/>
<path d="M0 0 C1.32 0.33 2.64 0.66 4 1 C4.33 2.32 4.66 3.64 5 5 C2.69 4.67 0.38 4.34 -2 4 C-1.34 2.68 -0.68 1.36 0 0 Z " fill="#C8C9C8" transform="translate(189,220)"/>
<path d="M0 0 C-2.9465385 1.80066242 -5.88801935 3.50163895 -9 5 C-8.67 4.01 -8.34 3.02 -8 2 C-7.34 2 -6.68 2 -6 2 C-6 1.34 -6 0.68 -6 0 C-3.50907189 -1.24546405 -2.58919267 -0.7767578 0 0 Z " fill="#8E8E8E" transform="translate(169,273)"/>
<path d="M0 0 C2.69082872 0.17635452 5.32851446 0.61835921 8 1 C5.38058783 2.74627478 3.96175123 3.38722388 1 4 C1 3.34 1 2.68 1 2 C0.34 1.67 -0.32 1.34 -1 1 C-0.67 0.67 -0.34 0.34 0 0 Z " fill="#7B7D7D" transform="translate(168,240)"/>
<path d="M0 0 C2.31 0.66 4.62 1.32 7 2 C6.01 2.33 5.02 2.66 4 3 C4 3.66 4 4.32 4 5 C2.68 4.34 1.36 3.68 0 3 C0 2.01 0 1.02 0 0 Z " fill="#8E908F" transform="translate(159,225)"/>
<path d="M0 0 C1.32 0 2.64 0 4 0 C4 0.66 4 1.32 4 2 C4.66 2 5.32 2 6 2 C5.67 2.99 5.34 3.98 5 5 C3.0625 4.1875 3.0625 4.1875 1 3 C0.67 2.01 0.34 1.02 0 0 Z " fill="#BBBBBB" transform="translate(275,222)"/>
<path d="M0 0 C1.3921875 0.3403125 1.3921875 0.3403125 2.8125 0.6875 C-0.6227048 2.97763653 -2.172831 2.86592973 -6.1875 2.6875 C-4.14987265 -0.14253799 -3.59070275 -0.35202968 0 0 Z " fill="#CFCFCF" transform="translate(233.1875,213.3125)"/>
<path d="M0 0 C0.99 0 1.98 0 3 0 C3 1.65 3 3.3 3 5 C2.34 5 1.68 5 1 5 C0.67 5.66 0.34 6.32 0 7 C0 4.69 0 2.38 0 0 Z " fill="#D2D2D2" transform="translate(196,188)"/>
<path d="" fill="#000000" transform="translate(0,0)"/>
<path d="" fill="#000000" transform="translate(0,0)"/>
<path d="" fill="#000000" transform="translate(0,0)"/>
<path d="" fill="#000000" transform="translate(0,0)"/>
<path d="" fill="#000000" transform="translate(0,0)"/>
<path d="" fill="#000000" transform="translate(0,0)"/>
<path d="" fill="#000000" transform="translate(0,0)"/>
<path d="" fill="#000000" transform="translate(0,0)"/>
<path d="" fill="#000000" transform="translate(0,0)"/>
<path d="" fill="#000000" transform="translate(0,0)"/>
<path d="" fill="#000000" transform="translate(0,0)"/>
<path d="" fill="#000000" transform="translate(0,0)"/>
<path d="" fill="#000000" transform="translate(0,0)"/>
<path d="" fill="#000000" transform="translate(0,0)"/>
<path d="" fill="#000000" transform="translate(0,0)"/>
<path d="" fill="#000000" transform="translate(0,0)"/>
<path d="" fill="#000000" transform="translate(0,0)"/>
<path d="" fill="#000000" transform="translate(0,0)"/>
<path d="" fill="#000000" transform="translate(0,0)"/>
<path d="" fill="#000000" transform="translate(0,0)"/>
<path d="" fill="#000000" transform="translate(0,0)"/>
<path d="" fill="#000000" transform="translate(0,0)"/>
<path d="" fill="#000000" transform="translate(0,0)"/>
<path d="" fill="#000000" transform="translate(0,0)"/>
<path d="" fill="#000000" transform="translate(0,0)"/>
<path d="" fill="#000000" transform="translate(0,0)"/>
<path d="" fill="#000000" transform="translate(0,0)"/>
<path d="" fill="#000000" transform="translate(0,0)"/>
<path d="" fill="#000000" transform="translate(0,0)"/>
<path d="" fill="#000000" transform="translate(0,0)"/>
<path d="" fill="#000000" transform="translate(0,0)"/>
<path d="" fill="#000000" transform="translate(0,0)"/>
<path d="" fill="#000000" transform="translate(0,0)"/>
<path d="" fill="#000000" transform="translate(0,0)"/>
<path d="" fill="#000000" transform="translate(0,0)"/>
<path d="" fill="#000000" transform="translate(0,0)"/>
<path d="" fill="#000000" transform="translate(0,0)"/>
<path d="" fill="#000000" transform="translate(0,0)"/>
<path d="" fill="#000000" transform="translate(0,0)"/>
<path d="" fill="#000000" transform="translate(0,0)"/>
<path d="" fill="#000000" transform="translate(0,0)"/>
<path d="" fill="#000000" transform="translate(0,0)"/>
<path d="" fill="#000000" transform="translate(0,0)"/>
<path d="" fill="#000000" transform="translate(0,0)"/>
<path d="" fill="#000000" transform="translate(0,0)"/>
<path d="" fill="#000000" transform="translate(0,0)"/>
<path d="" fill="#000000" transform="translate(0,0)"/>
<path d="" fill="#000000" transform="translate(0,0)"/>
<path d="" fill="#000000" transform="translate(0,0)"/>
<path d="" fill="#000000" transform="translate(0,0)"/>
<path d="" fill="#000000" transform="translate(0,0)"/>
<path d="" fill="#000000" transform="translate(0,0)"/>
<path d="" fill="#000000" transform="translate(0,0)"/>
<path d="" fill="#000000" transform="translate(0,0)"/>
<path d="" fill="#000000" transform="translate(0,0)"/>
<path d="" fill="#000000" transform="translate(0,0)"/>
<path d="" fill="#000000" transform="translate(0,0)"/>
<path d="" fill="#000000" transform="translate(0,0)"/>
<path d="" fill="#000000" transform="translate(0,0)"/>
<path d="" fill="#000000" transform="translate(0,0)"/>
<path d="" fill="#000000" transform="translate(0,0)"/>
<path d="" fill="#000000" transform="translate(0,0)"/>
<path d="" fill="#000000" transform="translate(0,0)"/>
<path d="" fill="#000000" transform="translate(0,0)"/>
<path d="" fill="#000000" transform="translate(0,0)"/>
<path d="" fill="#000000" transform="translate(0,0)"/>
<path d="" fill="#000000" transform="translate(0,0)"/>
<path d="" fill="#000000" transform="translate(0,0)"/>
<path d="" fill="#000000" transform="translate(0,0)"/>
<path d="" fill="#000000" transform="translate(0,0)"/>
<path d="" fill="#000000" transform="translate(0,0)"/>
<path d="" fill="#000000" transform="translate(0,0)"/>
<path d="" fill="#000000" transform="translate(0,0)"/>
<path d="" fill="#000000" transform="translate(0,0)"/>
<path d="" fill="#000000" transform="translate(0,0)"/>
<path d="" fill="#000000" transform="translate(0,0)"/>
<path d="" fill="#000000" transform="translate(0,0)"/>
<path d="" fill="#000000" transform="translate(0,0)"/>
<path d="" fill="#000000" transform="translate(0,0)"/>
<path d="" fill="#000000" transform="translate(0,0)"/>
<path d="" fill="#000000" transform="translate(0,0)"/>
<path d="" fill="#000000" transform="translate(0,0)"/>
<path d="" fill="#000000" transform="translate(0,0)"/>
</svg>
